# xmcd
#
# Track frame offsets:
# 150
# 19090
# 35965
# 49687
# 65792
# 85867
# 122692
# 146885
# 170725
# 191492
# 213385
# 230032
# 260535
#
# Disc length: 3795 seconds
#
#
# Revision: 0
# Processed by: cddbd v1.4PL0 Copyright (c) Steve Scherf et al.
# Submitted via: FreeRIP 2.10 
#
DISCID=c90ed10d
DTITLE=Otis Grand - The Blues Sessions 1990-1994
DYEAR=1994
DGENRE=Blues
TTITLE0=Beatrice, Beatrice
TTITLE1=Young Devil
TTITLE2=Insomnia
TTITLE3=They Killed Crazy Horse
TTITLE4=Why Oh Why
TTITLE5=Blues For T Bone
TTITLE6=Down Throu' The Years
TTITLE7=No Educated Woman
TTITLE8=Chains Of Love
TTITLE9=Jimmy's Jump Medley
TTITLE10=Cheese And Crackers
TTITLE11=I'm The One
TTITLE12=Sit Right Here
EXTD=
EXTT0=
EXTT1=
EXTT2=
EXTT3=
EXTT4=
EXTT5=
EXTT6=
EXTT7=
EXTT8=
EXTT9=
EXTT10=
EXTT11=
EXTT12=
PLAYORDER=
